<svg width="162" height="31" viewBox="0 0 162 31" fill="none" xmlns="http://www.w3.org/2000/svg">
<path d="M17.3847 17.4828C16.8749 16.8708 16.2929 16.3244 15.6517 15.856C14.928 15.3272 14.1753 14.8403 13.3972 14.3977C12.4799 13.8639 11.5196 13.3642 10.5163 12.8985C9.56327 12.4586 8.63606 11.9635 7.73927 11.4157C6.94757 10.9433 6.23636 10.3446 5.63306 9.64282C5.07441 8.97863 4.77707 8.12935 4.79784 7.25723C4.78799 6.59624 4.93867 5.94292 5.23663 5.35469C5.52234 4.79816 5.91142 4.30266 6.38254 3.89535C6.87322 3.47742 7.44053 3.16162 8.05197 2.96604C8.69933 2.75383 9.37586 2.64698 10.0563 2.64946C11.0212 2.62528 11.9827 2.775 12.8959 3.09165C13.6072 3.34799 14.2656 3.73543 14.8376 4.2344C15.3324 4.67184 15.7375 5.20341 16.03 5.79892C16.2954 6.33861 16.4781 6.91611 16.5716 7.51152L16.8652 9.66631H17.7418L17.3211 1.71401C16.3749 1.51726 15.4146 1.34705 14.4402 1.2034C13.2499 1.05179 12.0507 0.98355 10.8512 0.999153C9.61512 0.991382 8.38223 1.12638 7.1764 1.40152C6.1134 1.63651 5.10182 2.06638 4.1916 2.66988C3.35538 3.23276 2.66794 3.99428 2.18928 4.88799C1.67724 5.89448 1.42596 7.01609 1.45897 8.14774C1.41264 9.28462 1.6419 10.4157 2.12674 11.4422C2.63821 12.3673 3.335 13.174 4.17243 13.8104C5.20903 14.608 6.32904 15.2877 7.51231 15.8376C8.76447 16.4299 9.94131 17.0498 11.0428 17.6972C12.0659 18.2866 13.0069 19.0112 13.841 19.852C14.2164 20.235 14.5115 20.6907 14.7088 21.1918C14.906 21.693 15.0013 22.2293 14.989 22.7687C14.9932 23.4832 14.8431 24.1901 14.5491 24.8397C14.2613 25.4806 13.8477 26.0557 13.3336 26.5298C12.7809 27.0322 12.1358 27.4195 11.4352 27.6695C10.632 27.9612 9.7838 28.1051 8.93057 28.0944C7.94492 28.1138 6.96319 27.9633 6.02747 27.6491C5.28279 27.3969 4.58962 27.0097 3.98178 26.5063C3.46667 26.0743 3.0412 25.5433 2.72996 24.9439C2.45253 24.4074 2.26247 23.8291 2.16709 23.2313L1.87658 21.1173H1L1.41761 29.1912C1.66777 29.2177 2.04806 29.282 2.56554 29.3801C3.08301 29.4781 3.66303 29.5721 4.31769 29.6558C4.97235 29.7396 5.67442 29.8182 6.42692 29.8897C7.17943 29.9612 7.89966 29.9918 8.59668 29.9918C9.94701 29.9992 11.293 29.8359 12.6033 29.5057C13.7725 29.2185 14.8823 28.7245 15.8817 28.0464C16.8465 27.3972 17.6311 26.5088 18.1608 25.4657C18.6906 24.4226 18.9477 23.2597 18.9078 22.0875C18.9272 21.1976 18.7927 20.3111 18.5104 19.468C18.2508 18.745 17.87 18.0727 17.3847 17.4807" fill="white"/>
<path d="M34.6247 20.7997C33.885 22.7312 33.3003 24.2743 32.8706 25.429C32.4408 26.5836 32.114 27.4632 31.8901 28.0678C31.6668 28.6744 31.4718 29.1741 31.305 29.567H33.853C33.853 29.5302 35.6294 24.5691 37.5611 19.1811C36.7309 19.3087 35.9008 19.4364 35.0908 19.5712C34.9304 19.994 34.771 20.4117 34.6247 20.7967" fill="white"/>
<path d="M69.7121 2.81796C70.0449 3.08386 70.291 3.44505 70.4182 3.8545C70.6058 4.46206 70.6904 5.0974 70.6684 5.73356V12.4246C71.4622 12.3879 72.248 12.346 73.049 12.3164V5.3118H73.1317L77.0364 12.2092C78.2523 12.1826 79.4772 12.1629 80.7112 12.1499L74.6337 1.425H67.037V2.26854C67.5468 2.26385 68.0563 2.29799 68.5612 2.37066C68.9733 2.4228 69.367 2.57446 69.7091 2.81285" fill="white"/>
<path d="M89.9581 1.425H87.5796V12.1673C88.3734 12.1796 89.1713 12.1816 89.9581 12.199V1.425Z" fill="white"/>
<path d="M107.782 14.2292C107.782 12.9887 107.845 11.6856 107.972 10.3199C108.078 9.02239 108.396 7.75159 108.911 6.55871C109.406 5.4255 110.2 4.45284 111.207 3.7483C112.481 2.94804 113.967 2.56437 115.464 2.64946C116.682 2.61381 117.895 2.82204 119.034 3.26219C119.906 3.61395 120.701 4.13777 121.372 4.80322C121.94 5.37965 122.393 6.06128 122.706 6.81096C122.887 7.25808 123.037 7.71696 123.157 8.18451H124.327L123.98 2.14293C122.951 1.86039 121.775 1.59895 120.45 1.35863C118.968 1.10657 117.467 0.986287 115.964 0.999153C113.925 0.940846 111.892 1.24112 109.955 1.8866C108.484 2.39769 107.178 3.3038 106.176 4.50809C105.196 5.76793 104.523 7.24457 104.212 8.81767C103.861 10.5289 103.675 12.2709 103.658 14.0188C97.3349 13.595 90.7228 13.3672 83.9088 13.3672C68.6289 13.2754 53.3699 14.5291 38.3045 17.1141C40.3865 11.3207 42.411 5.68965 42.411 5.68965C42.411 5.68965 43.9473 9.95736 45.649 14.6826C46.8454 14.5103 48.0596 14.3473 49.2915 14.1934C47.2186 8.62057 44.9984 2.65456 44.372 0.999153H38.5285V1.84575C39.2972 1.78832 40.0686 1.91098 40.783 2.2042C40.9749 2.29658 41.1249 2.45948 41.2025 2.65979C41.28 2.8601 41.2794 3.08279 41.2006 3.28262C41.1853 3.2994 41.1737 3.31928 41.1666 3.34093C41.1595 3.36258 41.157 3.38552 41.1592 3.40823C39.6542 7.38489 38.3735 10.7948 37.317 13.6379C36.7834 15.0758 36.2952 16.3799 35.8433 17.5829C31.2043 18.472 26.6155 19.6109 22.0964 20.9948C30.0948 19.0417 38.2113 17.6229 46.3935 16.7475C48.2203 21.821 50.0128 26.7923 50.1338 27.1191C50.384 27.7951 50.6896 28.5978 51.0508 29.5271H54.9757C54.7255 28.7946 54.169 27.2876 53.3063 25.0062C53.1529 24.5895 51.7538 20.8191 50.0955 16.3553C56.5977 15.715 63.4953 15.2851 70.6734 15.0972V29.57H73.054V15.0451C74.8919 15.0111 76.7462 14.993 78.6171 14.991L86.8735 29.57H89.9632V15.1871C100.264 15.516 110.536 16.452 120.729 17.9903C120.849 18.5024 120.904 19.0278 120.893 19.5538V27.7553C120.501 27.8411 120.065 27.9177 119.581 27.9892C118.909 28.0694 118.233 28.1035 117.557 28.0913C116.275 28.1209 114.999 27.8982 113.8 27.4357C112.801 27.04 111.892 26.4432 111.128 25.6812C110.405 24.9484 109.817 24.0894 109.395 23.1455C108.966 22.1944 108.631 21.2023 108.396 20.1839C108.203 19.3428 108.063 18.49 107.978 17.6309C106.592 17.4947 105.19 17.366 103.772 17.2448C103.902 20.4357 105.006 23.5071 106.932 26.0366C109.119 28.6707 112.382 29.9877 116.723 29.9877C118.262 30.0058 119.799 29.8783 121.314 29.6068C122.432 29.4028 123.534 29.1203 124.613 28.7612V16.292C119.347 15.4751 113.712 14.8123 107.79 14.3241C107.79 14.2925 107.79 14.2598 107.79 14.2281M87.5796 24.1177H87.4949L82.3342 15.0094C84.0988 15.0284 85.8473 15.0625 87.5796 15.1115V24.1177Z" fill="white"/>
<path d="M160.486 9.75005C160.192 8.11681 159.598 6.55405 158.734 5.14329C157.917 3.85358 156.779 2.8038 155.435 2.09901C153.797 1.37527 152.028 1.0017 150.24 1.0017C148.453 1.0017 146.684 1.37527 145.045 2.09901C143.701 2.80241 142.563 3.85249 141.747 5.14329C140.881 6.55334 140.285 8.1163 139.992 9.75005C139.633 11.6441 139.459 13.5691 139.47 15.4975C139.456 17.4176 139.628 19.3345 139.984 21.2205C140.28 22.8464 140.875 24.4014 141.739 25.8048C142.557 27.099 143.693 28.1549 145.037 28.8684C146.672 29.6063 148.442 29.9877 150.232 29.9877C152.022 29.9877 153.792 29.6063 155.427 28.8684C156.77 28.1536 157.907 27.0979 158.726 25.8048C159.587 24.4007 160.181 22.8458 160.478 21.2205C160.837 19.3331 161.012 17.4145 160.999 15.4924C161.011 13.564 160.836 11.639 160.478 9.74494M156.688 20.2513C156.591 21.6537 156.296 23.0349 155.813 24.3526C155.401 25.4767 154.709 26.4735 153.803 27.2457C152.747 27.9618 151.505 28.3441 150.234 28.3441C148.963 28.3441 147.721 27.9618 146.665 27.2457C145.76 26.474 145.069 25.4764 144.661 24.3516C144.176 23.0342 143.881 21.6529 143.786 20.2503C143.659 18.7151 143.596 17.1301 143.596 15.4955C143.596 13.8608 143.666 12.2762 143.805 10.7417C143.915 9.33695 144.225 7.95568 144.725 6.64041C145.148 5.51784 145.845 4.52237 146.752 3.74728C147.777 2.96675 149.042 2.57793 150.322 2.64946C151.596 2.57592 152.855 2.96521 153.871 3.74728C154.762 4.52298 155.438 5.52052 155.832 6.64143C156.302 7.96212 156.59 9.34223 156.688 10.7427C156.812 12.2779 156.874 13.8625 156.875 15.4965C156.875 17.1305 156.813 18.7154 156.688 20.2513Z" fill="white"/>
</svg>
